<svg viewBox="0 0 400 300" xmlns="http://www.w3.org/2000/svg">
  <defs>
    <linearGradient id="wallD" x1="0" y1="0" x2="0" y2="1">
      <stop offset="0%" stop-color="#eef0e9"/>
      <stop offset="100%" stop-color="#dfe3d8"/>
    </linearGradient>
  </defs>
  <rect width="400" height="300" fill="url(#wallD)"/>
  <rect x="0" y="220" width="400" height="80" fill="#c9bfa8"/>

  <!-- window -->
  <rect x="270" y="30" width="100" height="130" fill="#9fc2cf" stroke="#16263e" stroke-width="6"/>
  <line x1="320" y1="30" x2="320" y2="160" stroke="#16263e" stroke-width="4"/>
  <line x1="270" y1="95" x2="370" y2="95" stroke="#16263e" stroke-width="4"/>
  <rect x="262" y="155" width="116" height="10" fill="#16263e"/>

  <!-- curtain -->
  <path d="M260,28 Q250,100 260,210 L280,210 Q272,100 278,28 Z" fill="#c9a056" opacity="0.85"/>

  <!-- bed -->
  <rect x="30" y="170" width="190" height="20" fill="#16263e"/>
  <rect x="30" y="150" width="190" height="22" fill="#f7f4ec"/>
  <rect x="30" y="190" width="190" height="50" fill="#16263e"/>
  <rect x="38" y="118" width="60" height="36" rx="6" fill="#fff"/>
  <rect x="100" y="118" width="60" height="36" rx="6" fill="#fff"/>
  <rect x="30" y="150" width="190" height="10" fill="#c9a056"/>

  <!-- headboard -->
  <rect x="22" y="108" width="16" height="132" fill="#16263e"/>

  <!-- side table + lamp -->
  <rect x="232" y="190" width="34" height="50" fill="#16263e"/>
  <ellipse cx="249" cy="170" rx="16" ry="8" fill="#c9a056"/>
  <rect x="244" y="155" width="10" height="20" fill="#16263e"/>

  <!-- rug -->
  <ellipse cx="150" cy="255" rx="120" ry="16" fill="#3c6e6b" opacity="0.5"/>
</svg>
